{"title":"Heimebane (2018) S01 E01 - 720p x265 HEVC - NOR (ENG SUBS) [BRSH","magnet":"magnet:?xt=urn:btih:21c3555f1ed0ae5413eb22cd3e480c416426659b&dn=Heimebane+%282018%29+S01+E01+-+720p+x265+HEVC+-+NOR+%28ENG+SUBS%29+%5BBRSH&tr=udp%3A%2F%2Ftracker.leechers-paradise.org%3A6969&tr=udp%3A%2F%2Fzer0day.ch%3A1337&tr=udp%3A%2F%2Fopen.demonii.com%3A1337&tr=udp%3A%2F%2Ftracker.coppersurfer.tk%3A6969&tr=udp%3A%2F%2Fexodus.desync.com%3A6969","uploader":"BRSHNKV","categoryP":"video","categoryS":"hd___tv_shows","size":"449632835","seeders":"7","leechers":"4","description":" <a href=\"https://www.imdb.com/title/tt7766104/?ref_=rvi_tt\" rel=\"nofollow\" target=\"_NEW\">https://www.imdb.com/title/tt7766104/?ref_=rvi_tt</a>\r\n\r\n\r\n\r\n\r\nFormat : MPEG-4 \r\nFormat profile : Base Media / Version 2 \r\nCodec ID : mp42 \r\nFile size : 429 MiB \r\nDuration : 49mn 8s \r\nOverall bit rate mode : Variable \r\nOverall bit rate : 1 220 Kbps \r\nMovie name : Heimebane S01 E01 - 720p x265 HEVC [BRSHNKV] \r\nEncoded date : UTC 2018-04-15 18:44:52 \r\nTagged date : UTC 2018-04-15 18:44:52 \r\nWriting application : HandBrake 20160211184813-ffd8cb1-master 2016021301 \r\n\r\nVideo \r\nID : 1 \r\nFormat : HEVC \r\nFormat/Info : High Efficiency Video Coding \r\nFormat profile : Main <a href=\"/cdn-cgi/l/email-protection\" class=\"__cf_email__\" data-cfemail=\"c6f7f6868af5e8f7\">[email&#xA0;protected]</a>@Main \r\nCodec ID : hev1 \r\nCodec ID/Info : High Efficiency Video Coding \r\nDuration : 49mn 8s \r\nBit rate : 1 050 Kbps \r\nWidth : 1 280 pixels \r\nHeight : 692 pixels \r\nDisplay aspect ratio : 1.85:1 \r\nFrame rate mode : Constant \r\nFrame rate : 25.000 fps \r\nColor space : YUV \r\nChroma subsampling : 4:2:0 \r\nBit depth : 10 bits \r\nBits/(Pixel*Frame) : 0.047 \r\nStream size : 369 MiB (86%) \r\nWriting library : x265 1.9:[Mac OS X][clang 7.0.2][64 bit] 10bit \r\nEncoded date : UTC 2018-04-15 18:44:52 \r\nTagged date : UTC 2018-04-15 18:44:52 \r\nColor range : Limited \r\nColor primaries : BT.709 \r\nTransfer characteristics : BT.709 \r\nMatrix coefficients : BT.709 \r\n\r\nAudio \r\nID : 2 \r\nFormat : AAC \r\nFormat/Info : Advanced Audio Codec \r\nFormat profile : LC \r\nCodec ID : 40 \r\nDuration : 49mn 8s \r\nBit rate mode : Variable \r\nBit rate : 163 Kbps \r\nChannel(s) : 2 channels \r\nChannel positions : Front: L R \r\nSampling rate : 48.0 KHz \r\nCompression mode : Lossy \r\nStream size : 57.4 MiB (13%) \r\nTitle : Stereo / Stereo \r\nLanguage : Norwegian Bokmal \r\nEncoded date : UTC 2018-04-15 18:44:52 \r\nTagged date : UTC 2018-04-15 18:44:52","last_updated":"2018-04-17T12:57:28.770Z","parsed":{"xt":"urn:btih:21c3555f1ed0ae5413eb22cd3e480c416426659b","dn":"Heimebane (2018) S01 E01 - 720p x265 HEVC - NOR (ENG SUBS) [BRSH","tr":["udp://exodus.desync.com:6969","udp://open.demonii.com:1337","udp://tracker.coppersurfer.tk:6969","udp://tracker.leechers-paradise.org:6969","udp://zer0day.ch:1337"],"infoHash":"21c3555f1ed0ae5413eb22cd3e480c416426659b","infoHashBuffer":{"type":"Buffer","data":[33,195,85,95,30,208,174,84,19,235,34,205,62,72,12,65,100,38,101,155]},"name":"Heimebane (2018) S01 E01 - 720p x265 HEVC - NOR (ENG SUBS) [BRSH","announce":["udp://exodus.desync.com:6969","udp://open.demonii.com:1337","udp://tracker.coppersurfer.tk:6969","udp://tracker.leechers-paradise.org:6969","udp://zer0day.ch:1337"],"urlList":[]}}